<svg xmlns="http://www.w3.org/2000/svg" xmlns:xlink="http://www.w3.org/1999/xlink" width="500" zoomAndPan="magnify" viewBox="0 0 375 374.999991" height="500" preserveAspectRatio="xMidYMid meet" version="1.2"><defs><clipPath id="3e3a36b581"><path d="M 112.5 84.886719 L 262.5 84.886719 L 262.5 234.136719 L 112.5 234.136719 Z M 112.5 84.886719 "/></clipPath><clipPath id="543581424f"><path d="M 145.46875 117.449219 L 229.46875 117.449219 L 229.46875 201.449219 L 145.46875 201.449219 Z M 145.46875 117.449219 "/></clipPath><clipPath id="4e55f91a47"><path d="M 149 174 L 197 174 L 197 201.449219 L 149 201.449219 Z M 149 174 "/></clipPath></defs><g id="dc34602cc1"><g clip-rule="nonzero" clip-path="url(#3e3a36b581)"><path style=" stroke:none;fill-rule:nonzero;fill:#caf438;fill-opacity:1;" d="M 187.5 84.90625 C 146.199219 84.90625 112.671875 118.433594 112.671875 159.734375 C 112.671875 198.1875 141.734375 229.898438 179.074219 234.089844 L 179.074219 217.390625 C 150.902344 213.304688 129.234375 189.03125 129.234375 159.730469 C 129.234375 130.429688 150.902344 106.160156 179.074219 102.074219 L 179.074219 119.046875 C 160.183594 122.945312 145.960938 139.691406 145.960938 159.730469 C 145.960938 182.65625 164.570312 201.269531 187.5 201.269531 C 210.425781 201.269531 229.039062 182.65625 229.039062 159.730469 C 229.039062 139.617188 214.714844 122.832031 195.726562 119.007812 L 195.726562 102.046875 C 223.996094 106.046875 245.765625 130.359375 245.765625 159.730469 C 245.765625 189.097656 223.996094 213.410156 195.726562 217.410156 L 195.726562 234.097656 C 233.160156 229.996094 262.328125 198.25 262.328125 159.730469 C 262.328125 118.429688 228.800781 84.902344 187.5 84.902344 Z M 187.5 134.757812 C 201.285156 134.757812 212.476562 145.949219 212.476562 159.734375 C 212.476562 173.519531 201.285156 184.710938 187.5 184.710938 C 173.714844 184.710938 162.523438 173.519531 162.523438 159.734375 C 162.523438 145.949219 173.714844 134.757812 187.5 134.757812 Z M 187.5 134.757812 "/></g><g clip-rule="nonzero" clip-path="url(#543581424f)"><path style=" stroke:none;fill-rule:nonzero;fill:#caf438;fill-opacity:1;" d="M 229.488281 159.46875 C 229.488281 159.519531 229.488281 159.570312 229.488281 159.625 C 229.472656 164.53125 228.613281 169.242188 227.050781 173.613281 C 226.839844 174.203125 226.617188 174.78125 226.378906 175.355469 C 224.101562 180.921875 220.667969 185.890625 216.375 189.960938 C 212.078125 194.03125 206.925781 197.199219 201.210938 199.175781 C 199.746094 199.683594 198.242188 200.109375 196.710938 200.453125 C 196.675781 200.464844 196.644531 200.464844 196.609375 200.476562 C 194.90625 200.855469 193.167969 201.128906 191.390625 201.289062 C 190.109375 201.410156 188.808594 201.472656 187.492188 201.472656 C 183.191406 201.472656 179.039062 200.828125 175.132812 199.625 C 174.140625 199.316406 173.167969 198.980469 172.210938 198.601562 C 163.578125 195.226562 156.332031 189.082031 151.570312 181.257812 C 150.78125 179.957031 150.058594 178.613281 149.410156 177.222656 C 147.015625 172.097656 145.628906 166.414062 145.492188 160.414062 C 145.488281 160.097656 145.484375 159.785156 145.484375 159.472656 C 145.484375 159.15625 145.488281 158.84375 145.492188 158.535156 C 145.753906 146.542969 151.046875 135.789062 159.339844 128.296875 C 160 127.699219 160.679688 127.121094 161.378906 126.570312 C 161.796875 126.238281 162.21875 125.914062 162.652344 125.597656 C 164.089844 124.539062 165.601562 123.570312 167.171875 122.699219 C 173.195312 119.359375 180.121094 117.464844 187.492188 117.464844 C 190.65625 117.464844 193.738281 117.816406 196.699219 118.480469 C 198.238281 118.824219 199.738281 119.253906 201.210938 119.761719 C 211.078125 123.167969 219.277344 130.144531 224.261719 139.152344 C 225.246094 140.925781 226.101562 142.777344 226.816406 144.695312 C 226.867188 144.828125 226.917969 144.960938 226.96875 145.097656 L 226.96875 145.101562 C 227.300781 146.011719 227.601562 146.933594 227.875 147.867188 C 228.757812 150.964844 229.300781 154.214844 229.445312 157.5625 C 229.476562 158.191406 229.488281 158.828125 229.488281 159.46875 Z M 229.488281 159.46875 "/></g><path style=" stroke:none;fill-rule:nonzero;fill:#caf438;fill-opacity:1;" d="M 169.34375 193.214844 C 170.210938 193.214844 170.210938 191.867188 169.34375 191.867188 C 168.476562 191.867188 168.472656 193.214844 169.34375 193.214844 Z M 169.34375 193.214844 "/><path style=" stroke:none;fill-rule:nonzero;fill:#caf438;fill-opacity:1;" d="M 164.707031 190.375 C 165.578125 190.375 165.578125 189.023438 164.707031 189.023438 C 163.835938 189.023438 163.835938 190.375 164.707031 190.375 Z M 164.707031 190.375 "/><path style=" stroke:none;fill-rule:nonzero;fill:#caf438;fill-opacity:1;" d="M 168.894531 187.828125 C 169.765625 187.828125 169.765625 186.480469 168.894531 186.480469 C 168.027344 186.480469 168.027344 187.828125 168.894531 187.828125 Z M 168.894531 187.828125 "/><path style=" stroke:none;fill-rule:nonzero;fill:#caf438;fill-opacity:1;" d="M 161.566406 184.089844 C 161.515625 184.089844 161.464844 184.089844 161.417969 184.089844 C 161.066406 184.089844 160.726562 184.398438 160.742188 184.761719 C 160.757812 185.128906 161.039062 185.4375 161.417969 185.4375 C 161.464844 185.4375 161.515625 185.4375 161.566406 185.4375 C 161.917969 185.4375 162.257812 185.128906 162.242188 184.761719 C 162.222656 184.398438 161.945312 184.089844 161.566406 184.089844 Z M 161.566406 184.089844 "/><path style=" stroke:none;fill-rule:nonzero;fill:#caf438;fill-opacity:1;" d="M 165.605469 183.492188 C 166.476562 183.492188 166.476562 182.140625 165.605469 182.140625 C 164.738281 182.140625 164.734375 183.492188 165.605469 183.492188 Z M 165.605469 183.492188 "/><path style=" stroke:none;fill-rule:nonzero;fill:#caf438;fill-opacity:1;" d="M 156.929688 180.5 C 157.796875 180.5 157.796875 179.148438 156.929688 179.148438 C 156.058594 179.152344 156.058594 180.5 156.929688 180.5 Z M 156.929688 180.5 "/><path style=" stroke:none;fill-rule:nonzero;fill:#caf438;fill-opacity:1;" d="M 152.441406 176.761719 C 153.308594 176.761719 153.308594 175.410156 152.441406 175.410156 C 151.570312 175.410156 151.570312 176.761719 152.441406 176.761719 Z M 152.441406 176.761719 "/><path style=" stroke:none;fill-rule:nonzero;fill:#caf438;fill-opacity:1;" d="M 174.578125 192.46875 C 175.449219 192.46875 175.449219 191.117188 174.578125 191.117188 C 173.710938 191.117188 173.710938 192.46875 174.578125 192.46875 Z M 174.578125 192.46875 "/><path style=" stroke:none;fill-rule:nonzero;fill:#caf438;fill-opacity:1;" d="M 172.636719 195.90625 C 173.503906 195.90625 173.503906 194.554688 172.636719 194.554688 C 171.765625 194.558594 171.765625 195.90625 172.636719 195.90625 Z M 172.636719 195.90625 "/><path style=" stroke:none;fill-rule:nonzero;fill:#caf438;fill-opacity:1;" d="M 184.601562 198.601562 C 185.472656 198.601562 185.472656 197.25 184.601562 197.25 C 183.734375 197.25 183.734375 198.601562 184.601562 198.601562 Z M 184.601562 198.601562 "/><path style=" stroke:none;fill-rule:nonzero;fill:#caf438;fill-opacity:1;" d="M 190.886719 197.851562 C 191.753906 197.851562 191.753906 196.503906 190.886719 196.503906 C 190.015625 196.503906 190.015625 197.851562 190.886719 197.851562 Z M 190.886719 197.851562 "/><path style=" stroke:none;fill-rule:nonzero;fill:#caf438;fill-opacity:1;" d="M 195.96875 198.75 C 196.839844 198.75 196.839844 197.402344 195.96875 197.402344 C 195.101562 197.402344 195.101562 198.75 195.96875 198.75 Z M 195.96875 198.75 "/><path style=" stroke:none;fill-rule:nonzero;fill:#caf438;fill-opacity:1;" d="M 156.703125 183.566406 C 156.703125 183.613281 156.703125 183.664062 156.703125 183.710938 C 156.703125 184.066406 157.011719 184.402344 157.378906 184.386719 C 157.742188 184.371094 158.050781 184.089844 158.050781 183.710938 C 158.050781 183.664062 158.050781 183.613281 158.050781 183.566406 C 158.050781 183.210938 157.742188 182.875 157.378906 182.890625 C 157.011719 182.90625 156.703125 183.1875 156.703125 183.566406 Z M 156.703125 183.566406 "/><path style=" stroke:none;fill-rule:nonzero;fill:#caf438;fill-opacity:1;" d="M 160.441406 179.226562 C 160.441406 179.277344 160.441406 179.328125 160.441406 179.375 C 160.441406 179.726562 160.753906 180.066406 161.117188 180.050781 C 161.484375 180.035156 161.792969 179.753906 161.792969 179.375 C 161.792969 179.328125 161.792969 179.277344 161.792969 179.226562 C 161.792969 178.875 161.484375 178.535156 161.117188 178.554688 C 160.753906 178.570312 160.441406 178.847656 160.441406 179.226562 Z M 160.441406 179.226562 "/><path style=" stroke:none;fill-rule:nonzero;fill:#caf438;fill-opacity:1;" d="M 150.046875 171.824219 C 150.917969 171.824219 150.917969 170.476562 150.046875 170.476562 C 149.179688 170.476562 149.179688 171.824219 150.046875 171.824219 Z M 150.046875 171.824219 "/><path style=" stroke:none;fill-rule:nonzero;fill:#caf438;fill-opacity:1;" d="M 179.292969 194.1875 C 179.292969 194.136719 179.292969 194.089844 179.292969 194.039062 C 179.292969 193.6875 178.984375 193.347656 178.617188 193.363281 C 178.253906 193.378906 177.945312 193.660156 177.945312 194.039062 C 177.945312 194.089844 177.945312 194.136719 177.945312 194.1875 C 177.945312 194.539062 178.253906 194.878906 178.617188 194.863281 C 178.984375 194.847656 179.292969 194.5625 179.292969 194.1875 Z M 179.292969 194.1875 "/><path style=" stroke:none;fill-rule:nonzero;fill:#ffffff;fill-opacity:1;" d="M 226.8125 144.691406 C 226.394531 144.511719 225.964844 144.347656 225.539062 144.199219 C 219.835938 142.199219 213.394531 142.628906 207.871094 145.363281 C 205.902344 146.339844 204.078125 147.648438 202.15625 149.035156 C 198.675781 151.53125 195.078125 154.121094 190.359375 154.84375 C 183.085938 155.960938 176.601562 153.839844 171.613281 148.714844 C 166.269531 143.238281 162.988281 134.441406 162.644531 125.59375 C 164.085938 124.535156 165.597656 123.566406 167.167969 122.695312 C 166.898438 130.472656 169.222656 139.8125 174.832031 145.574219 C 178.824219 149.675781 183.816406 151.292969 189.675781 150.394531 C 193.328125 149.835938 196.335938 147.671875 199.527344 145.382812 C 201.515625 143.953125 203.574219 142.46875 205.878906 141.335938 C 211.601562 138.5 218.152344 137.746094 224.257812 139.152344 C 225.242188 140.925781 226.097656 142.773438 226.8125 144.691406 Z M 226.8125 144.691406 "/><g clip-rule="nonzero" clip-path="url(#4e55f91a47)"><path style=" stroke:none;fill-rule:nonzero;fill:#ffffff;fill-opacity:1;" d="M 196.609375 200.472656 C 194.902344 200.851562 193.164062 201.125 191.386719 201.285156 C 191.011719 200.773438 190.664062 200.246094 190.355469 199.726562 C 189.273438 197.910156 188.527344 196 187.808594 194.148438 C 187.082031 192.277344 186.394531 190.511719 185.414062 188.964844 C 183.644531 186.164062 181.273438 183.765625 178.550781 182.035156 C 170.371094 176.824219 160.550781 178.472656 151.570312 181.25 C 150.777344 179.949219 150.058594 178.605469 149.410156 177.214844 C 159.324219 174.074219 170.996094 171.886719 180.964844 178.238281 C 184.242188 180.324219 187.09375 183.207031 189.210938 186.5625 C 190.421875 188.480469 191.21875 190.53125 191.992188 192.515625 C 192.679688 194.269531 193.320312 195.929688 194.214844 197.417969 C 194.851562 198.484375 195.667969 199.5625 196.609375 200.472656 Z M 196.609375 200.472656 "/></g></g></svg>